<svg width="66" height="50" viewBox="0 0 66 50" fill="none" xmlns="http://www.w3.org/2000/svg">
<path d="M11.6086 0.660924C7.61952 1.87499 4.03514 4.93905 2.0117 8.81249C0.450767 11.8187 0.50858 18.7562 2.18514 21.8781C4.49764 26.2719 11.5508 31.0125 14.2101 29.9719C15.7711 29.3937 14.9617 28.4109 12.0711 27.3125C7.96639 25.7515 6.05858 24.075 4.3242 20.664C1.26014 14.3625 3.63045 7.30936 9.81639 4.07186C13.9211 1.9328 17.2742 1.9328 21.4945 4.01405C25.5414 6.0953 27.7383 9.21717 28.143 13.4953C28.7211 19.5656 23.9226 34.0187 17.9101 43.9047C15.6555 47.6625 15.1351 48.9922 15.6555 49.5125C17.6789 51.4781 25.8883 35.1172 29.2992 22.3984C30.9758 16.039 30.9758 12.2234 29.2992 8.75467C26.293 2.3953 18.1414 -1.3047 11.6086 0.660924Z" fill="#754FFE" fill-opacity="0.24"/>
<path d="M46.2961 0.660887C42.1914 1.99057 38.7226 4.93901 36.6992 8.81245C35.1383 11.8187 35.1961 18.7562 36.8726 21.8781C39.1851 26.2718 46.2383 31.0124 48.8976 29.9718C50.4586 29.3937 49.6492 28.4109 46.7586 27.3124C42.6539 25.7515 40.7461 24.0749 39.0117 20.664C33.4617 9.21714 46.1805 -2.11411 57.107 4.53432C61.1539 7.02026 63.293 11.2406 62.8305 16.0968C62.2523 23.0921 57.2805 36.0999 51.6726 45.4078C50.1117 48.0093 49.7648 48.9343 50.343 49.4546C51.3258 50.4374 53.1758 47.9515 56.9336 40.6093C61.732 31.2437 65.3742 19.9124 65.3742 14.4781C65.3164 9.67964 61.732 4.18745 56.9914 1.75932C54.5055 0.48745 48.6664 -0.148488 46.2961 0.660887Z" fill="#754FFE" fill-opacity="0.24"/>
</svg>
